<?xml version="1.0" encoding="utf-8"?>
<!-- Generator: Adobe Illustrator 15.0.0, SVG Export Plug-In  -->
<!DOCTYPE svg PUBLIC "-//W3C//DTD SVG 1.1//EN" "http://www.w3.org/Graphics/SVG/1.1/DTD/svg11.dtd" [
	<!ENTITY ns_flows "http://ns.adobe.com/Flows/1.0/">
]>
<svg version="1.1"
	 xmlns="http://www.w3.org/2000/svg" xmlns:xlink="http://www.w3.org/1999/xlink" xmlns:a="http://ns.adobe.com/AdobeSVGViewerExtensions/3.0/"
	 x="0px" y="0px" width="844px" height="844px" viewBox="-24.271 -22.897 844 844"
	 overflow="visible" enable-background="new -24.271 -22.897 844 844" xml:space="preserve">
<defs>
</defs>
<path fill="none" stroke="#231F20" stroke-width="0.5" stroke-miterlimit="10" d="M350.69,378.609
	c-2.063,5.656-3.221,12.083-3.221,19.281H0.25c0-17.375,0.854-34.18,2.507-50.416l284.621,36.315
	c1.047-10.295,3.241-19.771,6.401-28.43L350.69,378.609z"/>
<path fill="none" stroke="#231F20" stroke-width="0.5" stroke-miterlimit="10" d="M73.938,144.707
	c8.619-11.195,19.814-18.319,32.63-21.07c12.828-2.758,27.184-0.839,42.502,5.671c15.336,6.5,31.6,17.724,48.804,33.287
	c17.234,15.562,35.377,35.7,55.188,59.733c19.81,24.037,36.163,45.521,49.864,63.846c13.686,18.345,24.935,33.677,33.953,45.857
	c9.004,12.197,15.815,21.246,20.151,27.392c2.641,4.119,2.583,6.669,1.643,7.885c-0.937,1.222-2.904,1.679-7.965,0.341
	c-7.015-2.65-17.453-6.956-31.494-12.544c-14.024-5.606-31.661-12.533-52.812-21.042c-21.136-8.529-45.984-18.818-74.132-31.906
	c-28.146-13.087-52.084-25.663-71.322-38.698c-19.238-12.998-33.994-26.342-43.916-40.052
	c-9.931-13.683-15.161-27.621-15.537-41.122C61.105,168.805,65.319,155.901,73.938,144.707z M118.745,179.725
	c-4.26,5.533-5.772,12.152-4.449,19.448c1.321,7.309,5.23,15.062,11.682,23.102c6.449,8.05,15.322,16.333,26.503,24.906
	c11.181,8.582,24.382,17.282,39.432,26.363c7.382,4.457,14.765,8.913,22.146,13.369c15.052,9.083,28.825,16.776,41.166,23.362
	c12.344,6.58,22.971,11.886,31.828,16.029c8.867,4.142,15.859,7.047,21.039,8.662c5.188,1.613,8.28,1.753,9.5,0.165
	c1.224-1.587,0.307-4.55-2.559-9.188c-2.863-4.627-7.428-10.696-13.644-18.292c-6.217-7.585-13.999-16.6-23.44-26.966
	c-9.446-10.36-20.312-21.848-32.816-34.25c-6.134-6.082-12.27-12.164-18.402-18.246c-12.502-12.398-24.152-23.11-35.157-31.909
	c-10.995-8.801-21.124-15.437-30.422-19.768c-9.29-4.332-17.647-6.286-24.931-5.835
	C128.941,171.131,123.005,174.192,118.745,179.725z"/>
<path fill="none" stroke="#231F20" stroke-width="0.5" stroke-miterlimit="10" d="M387.04,348.523
	c-1.654,0.326-3.293,0.728-4.907,1.203c-7.624-21.566-15.947-42.919-24.957-64.024c-7.27,2.388-14.306,5.439-20.98,9.155
	c10.742,20.351,22.115,40.371,34.105,60.033c-1.365,0.819-2.692,1.706-3.976,2.661c-70.19-94.302-124.392-200.117-160.157-312.987
	c13.479-6.752,27.345-12.732,41.508-17.941C312.407,126.968,359.362,235.748,387.04,348.523z M250.445,88.822
	c2.186,5.755,4.25,11.295,6.197,16.609c1.658,4.539,3.442,9.383,5.368,14.53c1.925,5.149,3.512,9.632,4.755,13.45
	c12.598,37.104,27.13,73.479,43.527,108.978c7.273-3.792,14.814-7.07,22.549-9.833c-17.158-35.16-36.205-69.562-57.078-103.062
	c-2.464-4.009-5.126-8.391-7.989-13.129c-2.865-4.741-5.512-9.209-7.925-13.419c-2.845-4.747-5.672-9.588-8.478-14.529
	C251.065,88.551,250.756,88.686,250.445,88.822z"/>
<path fill="none" stroke="#231F20" stroke-width="0.5" stroke-miterlimit="10" d="M330.661,5.345
	c22.438-3.43,45.172-5.129,67.899-5.095c13.038,0.019,24.705,4.156,34.141,12.022c9.45,7.871,16.407,19.399,20.575,34.227
	c4.186,14.834,5.525,32.908,4.275,54.062c-1.229,21.166-5.271,45.413-11.206,72.853c-6.285,29.055-12.824,54.317-18.662,75.994
	c-5.86,21.676-10.918,39.738-14.94,54.246c-4.044,14.508-7.037,25.456-9.308,32.798c-2.287,7.342-3.818,11.025-5.461,11.021
	c-2.882-0.006-5.763,0.209-8.608,0.645L330.661,5.345z M390.177,290.137c2.291-0.146,4.587-0.227,6.884-0.242
	c1.97-0.013,3.739-2.242,5.61-6.713c1.863-4.465,3.791-11.12,5.902-19.977c2.104-8.853,4.36-19.994,6.688-33.437
	c2.316-13.441,4.654-29.152,6.671-47.18c0.934-8.356,1.866-16.712,2.8-25.068c1.813-16.219,2.723-30.503,2.424-42.864
	c-0.293-12.357-1.711-22.745-4.331-31.108c-2.617-8.363-6.333-14.734-11.042-19.032c-4.704-4.294-10.301-6.471-16.506-6.429
	c-7.226,0.05-14.449,0.305-21.658,0.764L390.177,290.137z"/>
<path fill="none" stroke="#231F20" stroke-width="0.5" stroke-miterlimit="10" d="M506.827,13.822
	c12.635,3.222,25.108,7.018,37.369,11.387L416.441,350.636c-1.556-0.554-3.137-1.035-4.738-1.444L506.827,13.822z"/>
<path fill="none" stroke="#231F20" stroke-width="0.5" stroke-miterlimit="10" d="M575.15,37.683
	c10.406,4.7,20.61,9.843,30.572,15.428c-14.6,65.778-55.494,159.492-90.352,212.428c0.311,0.205,0.581,0.398,0.873,0.58
	L666.845,95.793c8.843,7.606,17.351,15.667,25.484,24.182L435.222,362.65c-1.028-1.077-2.107-2.1-3.229-3.063
	c41.057-50.229,74.027-107.045,97.535-168.196c0.676-1.732,1.702-4.275,3.051-7.644c1.347-3.367,2.679-6.79,3.991-10.27
	c1.605-4.076,3.252-8.415,4.926-13.023c-0.495,0.295-0.991,0.59-1.485,0.887c-1.918,3.321-3.796,6.571-5.627,9.744
	c-1.58,2.749-3.193,5.521-4.844,8.322c-1.654,2.803-3.083,5.203-4.288,7.202c-33.67,55.855-67.339,111.71-101.01,167.565
	c-1.263-0.708-2.558-1.36-3.877-1.956L575.15,37.683z"/>
<path fill="none" stroke="#231F20" stroke-width="0.5" stroke-miterlimit="10" d="M447.26,386.51
	c-0.24-1.258-0.522-2.485-0.844-3.682c12.284-4.156,24.5-8.553,36.643-13.185c-14.679,3.031-29.039,6.406-33.268,6.933
	s-7.099,0.552-7.893-1.211s-0.367-4.08,3.203-7.425s13.804-12.646,25.01-22.785c11.216-10.119,25.335-22.942,42.502-38.299
	c17.182-15.337,37.609-33.287,61.909-53.138c24.163-19.739,45.921-35.942,65.878-47.74c19.928-11.81,38.084-19.443,54.405-22.471
	c16.303-3.046,30.805-1.562,42.912,4.501c12.093,6.049,21.808,16.423,28.177,30.699c4.754,10.647,6.352,22.444,4.657,34.654
	c-1.694,12.217-6.813,24.038-15.178,34.908c-8.369,10.886-19.994,20.414-34.607,28.521c-14.619,8.132-32.231,14.113-52.558,18.785
	c-2.089-10.857-4.724-21.301-7.862-31.329c11.276-4.021,20.889-8.382,28.731-13.303c7.846-4.913,14.087-10.141,18.669-15.68
	c4.576-5.532,7.413-11.22,8.479-16.917c1.061-5.693,0.464-11.105-1.756-16.024c-3.194-7.082-8.486-11.852-15.547-14.123
	c-7.069-2.278-15.638-2.27-25.558-0.001c-9.929,2.262-21.119,6.696-33.583,13.132c-12.473,6.43-25.983,14.611-40.682,24.277
	c-7.212,4.741-14.424,9.482-21.635,14.224c-14.981,9.854-28.078,19.075-39.468,27.413c-11.386,8.344-20.798,15.668-28.317,21.872
	c-7.521,6.213-13.078,11.26-16.653,15.242c-3.57,3.991-4.955,6.823-4.039,8.855c0.669,1.489,3.055,2.016,7.27,1.796
	c4.207-0.222,9.908-1.116,17.142-2.61c7.233-1.502,15.869-3.591,25.896-6.343c10.028-2.757,21.11-6.153,33.171-10.455
	c-2.463-7.865-5.391-15.35-8.739-22.45c16.74-8.555,33.479-17.108,50.221-25.662c8.064,17.098,14.255,35.897,18.2,56.399
	L447.26,386.51z"/>
<path fill="none" stroke="#231F20" stroke-width="0.5" stroke-miterlimit="10" d="M445.742,417.151
	c2.063-5.656,3.221-12.083,3.221-19.281h347.22c0,17.375-0.854,34.18-2.507,50.416L509.055,411.97
	c-1.047,10.295-3.241,19.771-6.401,28.43L445.742,417.151z"/>
<path fill="none" stroke="#231F20" stroke-width="0.5" stroke-miterlimit="10" d="M722.494,651.053
	c-8.619,11.195-19.814,18.319-32.63,21.07c-12.828,2.758-27.184,0.839-42.502-5.671c-15.336-6.5-31.6-17.724-48.804-33.287
	c-17.234-15.562-35.377-35.7-55.188-59.733c-19.81-24.037-36.163-45.521-49.864-63.846c-13.686-18.345-24.935-33.677-33.953-45.857
	c-9.004-12.197-15.815-21.246-20.151-27.392c-2.641-4.119-2.583-6.669-1.643-7.885c0.937-1.222,2.904-1.679,7.965-0.341
	c7.015,2.65,17.453,6.956,31.494,12.544c14.024,5.606,31.661,12.533,52.812,21.042c21.136,8.529,45.984,18.818,74.132,31.906
	c28.146,13.087,52.084,25.663,71.322,38.698c19.238,12.998,33.994,26.342,43.916,40.052c9.931,13.683,15.161,27.621,15.537,41.122
	C735.327,626.955,731.113,639.859,722.494,651.053z M677.688,616.035c4.26-5.533,5.772-12.152,4.449-19.448
	c-1.321-7.309-5.23-15.062-11.682-23.102c-6.449-8.05-15.322-16.333-26.503-24.906c-11.181-8.582-24.382-17.282-39.432-26.363
	c-7.382-4.457-14.765-8.913-22.146-13.369c-15.052-9.083-28.825-16.776-41.166-23.362c-12.344-6.58-22.971-11.886-31.828-16.029
	c-8.867-4.142-15.859-7.047-21.039-8.662c-5.188-1.613-8.28-1.753-9.5-0.165c-1.224,1.587-0.307,4.55,2.559,9.188
	c2.863,4.627,7.428,10.696,13.644,18.292c6.217,7.585,13.999,16.6,23.44,26.966c9.446,10.36,20.312,21.848,32.816,34.25
	c6.134,6.082,12.27,12.164,18.402,18.246c12.502,12.398,24.152,23.11,35.157,31.909c10.995,8.801,21.124,15.437,30.422,19.768
	c9.29,4.332,17.647,6.286,24.931,5.835C667.491,624.628,673.428,621.568,677.688,616.035z"/>
<path fill="none" stroke="#231F20" stroke-width="0.5" stroke-miterlimit="10" d="M409.393,447.237
	c1.654-0.326,3.293-0.728,4.907-1.203c7.624,21.566,15.947,42.919,24.957,64.024c7.27-2.388,14.306-5.439,20.98-9.155
	c-10.742-20.351-22.115-40.371-34.105-60.033c1.365-0.819,2.692-1.706,3.976-2.661c70.19,94.302,124.392,200.117,160.157,312.987
	c-13.479,6.752-27.345,12.732-41.508,17.941C484.025,668.792,437.07,560.012,409.393,447.237z M545.987,706.938
	c-2.186-5.755-4.25-11.295-6.197-16.609c-1.658-4.539-3.442-9.383-5.368-14.53c-1.925-5.149-3.512-9.632-4.755-13.45
	c-12.598-37.104-27.13-73.479-43.527-108.978c-7.273,3.792-14.814,7.07-22.549,9.833c17.158,35.16,36.205,69.562,57.078,103.062
	c2.464,4.009,5.126,8.391,7.989,13.129c2.865,4.741,5.512,9.209,7.925,13.419c2.845,4.747,5.672,9.588,8.478,14.529
	C545.367,707.208,545.677,707.074,545.987,706.938z"/>
<path fill="none" stroke="#231F20" stroke-width="0.5" stroke-miterlimit="10" d="M465.771,790.415
	c-22.438,3.43-45.172,5.129-67.899,5.095c-13.038-0.019-24.705-4.156-34.141-12.022c-9.45-7.871-16.407-19.399-20.575-34.227
	c-4.186-14.834-5.525-32.908-4.275-54.062c1.229-21.166,5.271-45.413,11.206-72.853c6.285-29.055,12.824-54.317,18.662-75.994
	c5.86-21.676,10.918-39.738,14.94-54.246c4.044-14.508,7.037-25.456,9.308-32.798c2.287-7.342,3.818-11.025,5.461-11.021
	c2.882,0.006,5.763-0.209,8.608-0.645L465.771,790.415z M406.256,505.623c-2.291,0.146-4.587,0.227-6.884,0.242
	c-1.97,0.013-3.739,2.242-5.61,6.713c-1.863,4.465-3.791,11.12-5.902,19.977c-2.104,8.853-4.36,19.994-6.688,33.437
	c-2.316,13.441-4.654,29.152-6.671,47.18c-0.934,8.356-1.866,16.712-2.8,25.068c-1.813,16.219-2.723,30.503-2.424,42.864
	c0.293,12.357,1.711,22.745,4.331,31.108c2.617,8.363,6.333,14.734,11.042,19.032c4.704,4.294,10.301,6.471,16.506,6.429
	c7.226-0.05,14.449-0.305,21.658-0.764L406.256,505.623z"/>
<path fill="none" stroke="#231F20" stroke-width="0.5" stroke-miterlimit="10" d="M289.605,781.938
	c-12.635-3.222-25.108-7.018-37.369-11.387l127.755-325.428c1.556,0.554,3.137,1.035,4.738,1.444L289.605,781.938z"/>
<path fill="none" stroke="#231F20" stroke-width="0.5" stroke-miterlimit="10" d="M221.282,758.077
	c-10.406-4.7-20.61-9.843-30.572-15.428c14.6-65.778,55.494-159.492,90.352-212.428c-0.311-0.205-0.581-0.397-0.873-0.58
	L129.588,699.966c-8.843-7.606-17.351-15.667-25.484-24.182L361.211,433.11c1.028,1.077,2.107,2.1,3.229,3.063
	c-41.057,50.229-74.027,107.045-97.535,168.196c-0.676,1.732-1.702,4.275-3.051,7.644c-1.347,3.367-2.679,6.79-3.991,10.27
	c-1.605,4.076-3.252,8.415-4.926,13.023c0.495-0.295,0.991-0.59,1.485-0.887c1.918-3.321,3.796-6.571,5.627-9.744
	c1.58-2.749,3.193-5.521,4.844-8.322c1.654-2.803,3.083-5.203,4.288-7.202c33.67-55.855,67.339-111.71,101.01-167.565
	c1.263,0.708,2.558,1.36,3.877,1.956L221.282,758.077z"/>
<path fill="none" stroke="#231F20" stroke-width="0.5" stroke-miterlimit="10" d="M349.173,409.25
	c0.24,1.258,0.522,2.485,0.844,3.682c-12.284,4.156-24.5,8.553-36.643,13.185c14.679-3.031,29.039-6.406,33.268-6.933
	s7.099-0.552,7.893,1.211s0.367,4.08-3.203,7.425s-13.804,12.646-25.01,22.785c-11.216,10.119-25.335,22.942-42.502,38.299
	c-17.182,15.337-37.609,33.287-61.909,53.138c-24.163,19.739-45.921,35.942-65.878,47.74c-19.928,11.81-38.084,19.443-54.405,22.471
	c-16.303,3.046-30.805,1.562-42.912-4.501c-12.093-6.049-21.808-16.423-28.177-30.699c-4.754-10.647-6.352-22.444-4.657-34.654
	c1.694-12.217,6.813-24.038,15.178-34.908c8.369-10.886,19.994-20.414,34.607-28.521c14.619-8.132,32.231-14.113,52.558-18.785
	c2.089,10.857,4.724,21.301,7.862,31.329c-11.276,4.021-20.889,8.382-28.731,13.303c-7.846,4.913-14.087,10.141-18.669,15.68
	c-4.576,5.532-7.413,11.22-8.479,16.917c-1.061,5.693-0.464,11.105,1.756,16.024c3.194,7.082,8.486,11.852,15.547,14.123
	c7.069,2.278,15.638,2.27,25.558,0.001c9.929-2.262,21.119-6.696,33.583-13.132c12.473-6.43,25.983-14.611,40.682-24.277
	c7.212-4.741,14.424-9.482,21.635-14.224c14.981-9.854,28.078-19.075,39.468-27.413c11.386-8.344,20.798-15.668,28.317-21.872
	c7.521-6.213,13.078-11.26,16.653-15.242c3.57-3.991,4.955-6.823,4.039-8.855c-0.669-1.489-3.055-2.016-7.27-1.796
	c-4.207,0.222-9.908,1.116-17.142,2.61c-7.233,1.502-15.869,3.591-25.896,6.343c-10.028,2.757-21.11,6.153-33.171,10.455
	c2.463,7.865,5.391,15.35,8.739,22.45c-16.74,8.555-33.479,17.108-50.221,25.662c-8.064-17.098-14.255-35.897-18.2-56.399
	L349.173,409.25z"/>
</svg>
